<svg width="150" height="75" viewBox="0 0 150 75" fill="none" xmlns="http://www.w3.org/2000/svg">
<path fill-rule="evenodd" clip-rule="evenodd" d="M17.6428 4.56401C12.8702 4.19271 8.00943 5.40475 3.2015 9.01718C2.31841 9.68069 1.06466 9.50268 0.401153 8.6196C-0.262351 7.73652 -0.0843477 6.48276 0.798735 5.81926C6.37502 1.62951 12.198 0.12833 17.9531 0.576057C23.6555 1.01968 29.1614 3.364 34.2157 6.64033C44.2989 13.1766 53.0137 23.7037 58.5657 31.7937C59.7515 33.5215 60.9783 35.3281 62.2344 37.1777L62.236 37.1802L62.2376 37.1826C65.503 41.991 68.9661 47.0907 72.4211 51.8576C77.2259 58.4867 81.8799 64.2781 85.8013 67.6395C87.7893 69.3436 89.3609 70.2196 90.4949 70.443C91.0171 70.5458 91.3797 70.4971 91.6513 70.3878C91.9231 70.2785 92.2608 70.0454 92.6287 69.5208C93.4166 68.3975 94.149 66.2148 94.5141 62.4284C94.8733 58.7038 94.8572 53.6727 94.3623 47.0788C93.3549 33.6561 94.7748 24.5295 98.1175 18.819C99.8156 15.9183 102.016 13.8919 104.614 12.6838C107.196 11.4832 110.039 11.1508 112.95 11.4155C118.713 11.9395 125.02 14.8276 130.914 18.5548C135.776 21.6298 140.489 25.3605 144.569 29.0547L143.61 24.257C143.413 23.2754 144.05 22.3199 145.031 22.1229C146.013 21.926 146.968 22.5621 147.164 23.5438L149.505 35.2509L148.676 35.4172L148.677 35.4225L138.934 37.3726C137.924 37.5748 136.942 36.9198 136.741 35.9097C136.539 34.8995 137.195 33.9168 138.205 33.7146L142.743 32.8062C138.61 28.9826 133.754 25.0833 128.776 21.9356C123.078 18.3326 117.414 15.8379 112.588 15.3991C110.205 15.1824 108.101 15.4737 106.3 16.3108C104.517 17.1403 102.901 18.5656 101.57 20.8398C98.8538 25.4791 97.3615 33.5948 98.3511 46.7795C98.8547 53.4893 98.8853 58.7713 98.4957 62.8124C98.1119 66.7916 97.2998 69.827 95.9035 71.8177C95.1794 72.8501 94.265 73.6479 93.1443 74.0987C92.0236 74.5497 90.8533 74.5904 89.7218 74.3676C87.5483 73.9394 85.3288 72.5029 83.1981 70.6764C78.882 66.9767 73.988 60.8352 69.1824 54.205C65.689 49.3853 62.1711 44.2049 58.8947 39.3802L58.8944 39.3797L58.8938 39.3788C57.6451 37.54 56.4314 35.7529 55.2676 34.057C49.8363 26.1428 41.477 16.1142 32.0399 9.99683C27.334 6.94636 22.4682 4.9394 17.6428 4.56401Z" fill="#333333"/>
</svg>
