<svg width="35" height="35" viewBox="0 0 35 35" fill="none" xmlns="http://www.w3.org/2000/svg">
<g clip-path="url(#clip0_487_367)">
<path d="M22.5 0H2.5C1.83696 0 1.20107 0.263392 0.732233 0.732233C0.263392 1.20107 0 1.83696 0 2.5V7.5C0 8.16304 0.263392 8.79893 0.732233 9.26777C1.20107 9.73661 1.83696 10 2.5 10V32.5C2.5 33.163 2.76339 33.7989 3.23223 34.2678C3.70107 34.7366 4.33696 35 5 35H20C20.663 35 21.2989 34.7366 21.7678 34.2678C22.2366 33.7989 22.5 33.163 22.5 32.5V10C23.163 10 23.7989 9.73661 24.2678 9.26777C24.7366 8.79893 25 8.16304 25 7.5V2.5C25 1.83696 24.7366 1.20107 24.2678 0.732233C23.7989 0.263392 23.163 0 22.5 0ZM5 15H8.75V27.5H5V15ZM20 32.5H5V30H11.25V12.5H5V10H20V32.5ZM2.5 7.5V2.5H22.5V7.5H2.5Z" fill="#FF1919"/>
<path d="M30 22.5C32.7614 22.5 35 20.2614 35 17.5C35 14.7386 32.7614 12.5 30 12.5C27.2386 12.5 25 14.7386 25 17.5C25 20.2614 27.2386 22.5 30 22.5Z" fill="#FF1919"/>
</g>
<defs>
<clipPath id="clip0_487_367">
<rect width="35" height="35" fill="white"/>
</clipPath>
</defs>
</svg>
