<svg width="50" height="31" viewBox="0 0 50 31" fill="none" xmlns="http://www.w3.org/2000/svg">
<path fill-rule="evenodd" clip-rule="evenodd" d="M25.1048 12.6855C17.1163 7.62079 8.24863 2.88288 1 1C6.14866 4.80883 13.7016 9.99899 21.1993 14.9191C13.2003 19.6365 5.63601 25.0377 2.12145 29.9999C8.35052 26.8743 17.0072 22.1709 25.1789 17.5081C37.7373 25.606 48.8776 32.0806 46.5796 28.8612C45.5649 27.4396 38.2645 21.428 29.0689 15.2699C41.9981 7.76697 52.4001 1.06116 47.7011 2.13871C45.5319 2.63613 35.4429 6.94601 25.1048 12.6855Z" fill="#333333"/>
<path d="M1 1L1.12571 0.516062L0.702638 1.40197L1 1ZM25.1048 12.6855L24.8371 13.1078L25.0879 13.2668L25.3475 13.1226L25.1048 12.6855ZM21.1993 14.9191L21.4533 15.3497L22.1452 14.9417L21.4736 14.501L21.1993 14.9191ZM2.12145 29.9999L1.71343 29.7109L2.3457 30.4468L2.12145 29.9999ZM25.1789 17.5081L25.4498 17.0879L25.1947 16.9234L24.9311 17.0738L25.1789 17.5081ZM46.5796 28.8612L46.1727 29.1517L46.1727 29.1517L46.5796 28.8612ZM29.0689 15.2699L28.818 14.8375L28.125 15.2396L28.7907 15.6854L29.0689 15.2699ZM47.7011 2.13871L47.5893 1.65136L47.7011 2.13871ZM0.874294 1.48394C8.04412 3.34635 16.8575 8.04872 24.8371 13.1078L25.3726 12.2632C17.3751 7.19286 8.45313 2.41941 1.12571 0.516062L0.874294 1.48394ZM21.4736 14.501C13.9802 9.58375 6.4357 4.39923 1.29736 0.598037L0.702638 1.40197C5.86162 5.21843 13.423 10.4142 20.925 15.3371L21.4736 14.501ZM2.52948 30.2889C5.97569 25.4232 13.4526 20.0681 21.4533 15.3497L20.9453 14.4884C12.948 19.2048 5.29633 24.6523 1.71343 29.7109L2.52948 30.2889ZM24.9311 17.0738C16.764 21.7341 8.11559 26.4328 1.89721 29.553L2.3457 30.4468C8.58544 27.3159 17.2505 22.6078 25.4267 17.9424L24.9311 17.0738ZM46.1727 29.1517C46.3062 29.3387 46.3626 29.4531 46.3806 29.5083C46.4037 29.5791 46.3336 29.432 46.472 29.2859C46.5791 29.173 46.6798 29.2104 46.5626 29.2037C46.476 29.1988 46.3314 29.1716 46.1176 29.1061C45.256 28.8424 43.7289 28.1068 41.6906 26.9901C37.6392 24.7705 31.7266 21.1352 25.4498 17.0879L24.9079 17.9283C31.1896 21.9789 37.1264 25.6298 41.2102 27.8671C43.2395 28.9789 44.8515 29.7644 45.8249 30.0623C46.0698 30.1373 46.3025 30.1905 46.5057 30.2021C46.6783 30.2119 46.9816 30.202 47.1978 29.9738C47.4455 29.7125 47.3914 29.3822 47.3313 29.1982C47.2662 28.9985 47.1404 28.7862 46.9866 28.5707L46.1727 29.1517ZM28.7907 15.6854C33.3776 18.7571 37.491 21.7918 40.5821 24.2341C42.1279 25.4554 43.4154 26.5264 44.3771 27.3781C45.3547 28.2439 45.9573 28.85 46.1727 29.1517L46.9866 28.5707C46.6946 28.1616 46.0041 27.4832 45.0401 26.6295C44.0603 25.7618 42.7577 24.6785 41.2021 23.4494C38.0905 20.991 33.9559 17.9409 29.3471 14.8545L28.7907 15.6854ZM47.8129 2.62606C48.0932 2.56177 48.2951 2.53192 48.4313 2.52564C48.596 2.51805 48.5736 2.54998 48.4994 2.49974C48.442 2.46081 48.3829 2.39036 48.3597 2.29475C48.3398 2.21233 48.3577 2.15677 48.3592 2.15201C48.3612 2.14606 48.3567 2.1616 48.3304 2.20176C48.3053 2.24006 48.2673 2.29022 48.2129 2.35283C47.7463 2.88992 46.5393 3.82634 44.7135 5.07379C41.1001 7.54252 35.2806 11.0871 28.818 14.8375L29.3199 15.7024C35.7864 11.9498 41.6324 8.38999 45.2776 5.89947C47.0811 4.66728 48.4016 3.66036 48.9678 3.0087C49.1075 2.84795 49.2449 2.66098 49.3097 2.46286C49.3439 2.35838 49.3695 2.21573 49.3316 2.0593C49.2905 1.88969 49.1879 1.75828 49.0604 1.67192C48.8463 1.52678 48.5781 1.51781 48.3852 1.5267C48.1638 1.53691 47.8964 1.58095 47.5893 1.65136L47.8129 2.62606ZM25.3475 13.1226C30.5035 10.2601 35.5982 7.75373 39.6732 5.90151C43.7698 4.03947 46.7867 2.86137 47.8129 2.62606L47.5893 1.65136C46.4463 1.91347 43.3342 3.13901 39.2594 4.99114C35.163 6.85308 30.0442 9.37137 24.8622 12.2483L25.3475 13.1226Z" fill="#333333"/>
</svg>
