<svg width="50" height="31" viewBox="0 0 50 31" fill="none" xmlns="http://www.w3.org/2000/svg">
<path fill-rule="evenodd" clip-rule="evenodd" d="M25.1048 12.6855C17.1163 7.62079 8.24863 2.88287 1 1C6.14866 4.80883 13.7016 9.99899 21.1993 14.9191C13.2003 19.6365 5.63601 25.0377 2.12145 29.9999C8.35052 26.8743 17.0072 22.1709 25.1789 17.5081C37.7373 25.606 48.8776 32.0806 46.5796 28.8612C45.5649 27.4396 38.2645 21.428 29.0689 15.2699C41.9981 7.76697 52.4001 1.06116 47.7011 2.1387C45.5319 2.63613 35.4429 6.946 25.1048 12.6855Z" fill="#FF1919"/>
<path d="M1 1L1.25141 0.03212L0.405276 1.80393L1 1ZM25.1048 12.6855L24.5694 13.53L25.071 13.8481L25.5902 13.5598L25.1048 12.6855ZM21.1993 14.9191L21.7073 15.7804L23.0911 14.9644L21.7479 14.083L21.1993 14.9191ZM2.12145 29.9999L1.3054 29.422L2.56994 30.8937L2.12145 29.9999ZM25.1789 17.5081L25.7208 16.6677L25.2106 16.3387L24.6833 16.6396L25.1789 17.5081ZM46.5796 28.8612L45.7657 29.4422L45.7657 29.4422L46.5796 28.8612ZM29.0689 15.2699L28.567 14.405L27.1812 15.2092L28.5125 16.1008L29.0689 15.2699ZM47.7011 2.1387L47.4776 1.164L47.7011 2.1387ZM0.748587 1.96788C7.83962 3.80982 16.5986 8.47665 24.5694 13.53L25.6403 11.8409C17.6339 6.76493 8.65764 1.95593 1.25141 0.03212L0.748587 1.96788ZM21.7479 14.083C14.2587 9.16851 6.72273 3.98962 1.59472 0.19607L0.405276 1.80393C5.57459 5.62804 13.1445 10.8295 20.6507 15.7551L21.7479 14.083ZM2.9375 30.5779C6.31537 25.8087 13.7049 20.4998 21.7073 15.7804L20.6913 14.0577C12.6957 18.7731 4.95665 24.2668 1.3054 29.422L2.9375 30.5779ZM24.6833 16.6396C16.5207 21.2972 7.88067 25.9913 1.67297 29.1061L2.56994 30.8937C8.82036 27.7574 17.4937 23.0447 25.6745 18.3767L24.6833 16.6396ZM45.7657 29.4422C45.8891 29.615 45.9108 29.6804 45.9053 29.6633C45.9014 29.6515 45.8744 29.5681 45.8846 29.4391C45.8962 29.292 45.9565 29.103 46.1091 28.942C46.3778 28.6585 46.6806 28.7096 46.5911 28.7045C46.5627 28.7029 46.4622 28.6887 46.2639 28.628C45.4583 28.3814 43.9736 27.6707 41.9309 26.5516C37.8955 24.3408 31.9951 20.7134 25.7208 16.6677L24.637 18.3485C30.9212 22.4007 36.8701 26.0595 40.9699 28.3056C42.9948 29.415 44.6493 30.2254 45.6786 30.5405C45.939 30.6202 46.2157 30.6864 46.4773 30.7013C46.6776 30.7127 47.1828 30.7165 47.5607 30.3177C48.0015 29.8527 47.8852 29.2838 47.8067 29.0431C47.718 28.7712 47.5575 28.5099 47.3936 28.2803L45.7657 29.4422ZM28.5125 16.1008C33.0884 19.1652 37.1913 22.1922 40.2722 24.6264C41.8131 25.8439 43.0929 26.9087 44.0457 27.7525C45.0301 28.6242 45.5887 29.1942 45.7657 29.4422L47.3936 28.2803C47.0632 27.8174 46.3288 27.1028 45.3716 26.2552C44.3828 25.3795 43.0725 24.29 41.5121 23.0571C38.3902 20.5906 34.245 17.5327 29.6254 14.439L28.5125 16.1008ZM47.9246 3.11341C48.1916 3.05217 48.3608 3.02942 48.4543 3.02511C48.605 3.01816 48.4372 3.06157 48.2189 2.91364C48.069 2.81208 47.9291 2.64069 47.8738 2.41248C47.8249 2.21063 47.8646 2.05595 47.884 1.99658C47.9158 1.89952 47.9435 1.90062 47.8355 2.0249C47.4186 2.50471 46.2684 3.40587 44.4314 4.66094C40.834 7.11879 35.0277 10.6558 28.567 14.405L29.5708 16.1348C36.0393 12.3811 41.8985 8.81372 45.5597 6.31231C47.352 5.08775 48.7293 4.04557 49.3452 3.33663C49.4955 3.16372 49.688 2.9148 49.7849 2.61829C49.837 2.45919 49.8844 2.21743 49.8176 1.94157C49.7443 1.63935 49.5608 1.40702 49.3409 1.25801C48.9826 1.01518 48.5691 1.01769 48.3622 1.02723C48.0982 1.03941 47.7979 1.09054 47.4776 1.164L47.9246 3.11341ZM25.5902 13.5598C30.7332 10.7045 35.8158 8.20405 39.8801 6.35669C43.9876 4.4897 46.9569 3.33531 47.9246 3.11341L47.4776 1.164C46.2761 1.43952 43.1164 2.68878 39.0525 4.53595C34.9455 6.40276 29.8145 8.92699 24.6195 11.8112L25.5902 13.5598Z" fill="#333333"/>
</svg>
