<svg width="30" height="30" viewBox="0 0 30 30" fill="none" xmlns="http://www.w3.org/2000/svg">
<path d="M28.6566 0.15625H1.34412C0.68728 0.15625 0.156616 0.686914 0.156616 1.34375V28.6562C0.156616 29.3131 0.68728 29.8438 1.34412 29.8438H28.6566C29.3135 29.8438 29.8441 29.3131 29.8441 28.6562V1.34375C29.8441 0.686914 29.3135 0.15625 28.6566 0.15625ZM27.4691 27.4688H20.6373V18.3473H24.4967L25.0756 13.8682H20.6373V11.007C20.6373 9.7082 20.9972 8.825 22.8564 8.825H25.2277V4.81719C24.8158 4.76152 23.4094 4.63906 21.7691 4.63906C18.3476 4.63906 16.006 6.72832 16.006 10.5617V13.8645H12.1392V18.3436H16.0097V27.4688H2.53162V2.53125H27.4691V27.4688Z" fill="black"/>
</svg>
