<svg width="35" height="35" viewBox="0 0 35 35" fill="none" xmlns="http://www.w3.org/2000/svg">
<path d="M10.2083 16.1538C8.27446 16.1538 6.4198 15.4447 5.05235 14.1824C3.68489 12.9202 2.91667 11.2082 2.91667 9.42308V4.03846C2.91667 3.68144 3.07031 3.33904 3.3438 3.08659C3.61729 2.83413 3.98823 2.69231 4.375 2.69231H5.83333C6.22011 2.69231 6.59104 2.55048 6.86453 2.29803C7.13802 2.04558 7.29167 1.70318 7.29167 1.34615C7.29167 0.989132 7.13802 0.646732 6.86453 0.394279C6.59104 0.141826 6.22011 0 5.83333 0H4.375C3.21468 0 2.10188 0.42548 1.28141 1.18284C0.460936 1.9402 0 2.9674 0 4.03846V9.42308C0.00187457 10.9439 0.403626 12.4415 1.17075 13.7874C1.93787 15.1333 3.04744 16.2872 4.40417 17.15C5.70767 18.2108 6.76478 19.5044 7.51171 20.9528C8.25863 22.4011 8.67987 23.9741 8.75 25.5769C8.75 28.0761 9.82552 30.4729 11.74 32.24C13.6544 34.0072 16.2509 35 18.9583 35C21.6658 35 24.2623 34.0072 26.1767 32.24C28.0911 30.4729 29.1667 28.0761 29.1667 25.5769V24.0423C30.5414 23.7147 31.7394 22.9355 32.5363 21.8508C33.3331 20.7661 33.6741 19.4503 33.4952 18.1502C33.3163 16.8501 32.6298 15.6548 31.5645 14.7884C30.4992 13.922 29.1281 13.4441 27.7083 13.4441C26.2885 13.4441 24.9175 13.922 23.8522 14.7884C22.7868 15.6548 22.1004 16.8501 21.9215 18.1502C21.7426 19.4503 22.0835 20.7661 22.8804 21.8508C23.6772 22.9355 24.8753 23.7147 26.25 24.0423V25.5769C26.25 27.362 25.4818 29.074 24.1143 30.3363C22.7469 31.5986 20.8922 32.3077 18.9583 32.3077C17.0245 32.3077 15.1698 31.5986 13.8023 30.3363C12.4349 29.074 11.6667 27.362 11.6667 25.5769C11.7405 23.9722 12.1663 22.3979 12.9183 20.9495C13.6703 19.501 14.7328 18.2084 16.0417 17.15C17.393 16.2842 18.4969 15.129 19.2588 13.7833C20.0208 12.4376 20.4181 10.9415 20.4167 9.42308V4.03846C20.4167 2.9674 19.9557 1.9402 19.1353 1.18284C18.3148 0.42548 17.202 0 16.0417 0H14.5833C14.1966 0 13.8256 0.141826 13.5521 0.394279C13.2786 0.646732 13.125 0.989132 13.125 1.34615C13.125 1.70318 13.2786 2.04558 13.5521 2.29803C13.8256 2.55048 14.1966 2.69231 14.5833 2.69231H16.0417C16.4284 2.69231 16.7994 2.83413 17.0729 3.08659C17.3464 3.33904 17.5 3.68144 17.5 4.03846V9.42308C17.5 10.307 17.3114 11.1822 16.945 11.9988C16.5785 12.8154 16.0414 13.5574 15.3643 14.1824C14.6872 14.8075 13.8834 15.3032 12.9987 15.6415C12.1141 15.9798 11.1659 16.1538 10.2083 16.1538ZM27.7083 21.5385C26.9348 21.5385 26.1929 21.2548 25.6459 20.7499C25.099 20.245 24.7917 19.5602 24.7917 18.8462C24.7917 18.1321 25.099 17.4473 25.6459 16.9424C26.1929 16.4375 26.9348 16.1538 27.7083 16.1538C28.4819 16.1538 29.2237 16.4375 29.7707 16.9424C30.3177 17.4473 30.625 18.1321 30.625 18.8462C30.625 19.5602 30.3177 20.245 29.7707 20.7499C29.2237 21.2548 28.4819 21.5385 27.7083 21.5385Z" fill="#FF1919"/>
</svg>
