<svg width="35" height="28" viewBox="0 0 35 28" fill="none" xmlns="http://www.w3.org/2000/svg">
<path d="M31.3252 24.5H27.8927V9.1875L17.595 15.75L7.29735 9.1875V24.5H3.8648V3.5H5.92433L17.595 10.9375L29.2657 3.5H31.3252V24.5ZM31.3252 0H3.8648C1.95974 0 0.432251 1.5575 0.432251 3.5V24.5C0.432251 25.4283 0.793894 26.3185 1.43762 26.9749C2.08135 27.6312 2.95443 28 3.8648 28H31.3252C32.2356 28 33.1087 27.6312 33.7524 26.9749C34.3961 26.3185 34.7578 25.4283 34.7578 24.5V3.5C34.7578 2.57174 34.3961 1.6815 33.7524 1.02513C33.1087 0.368749 32.2356 0 31.3252 0Z" fill="black"/>
</svg>
