<svg width="51" height="32" viewBox="0 0 51 32" fill="none" xmlns="http://www.w3.org/2000/svg">
<g filter="url(#filter0_di_523_41)">
<path fill-rule="evenodd" clip-rule="evenodd" d="M40.9168 3.25775C40.5065 2.23218 39.3426 1.73335 38.317 2.14358C37.2915 2.5538 36.7926 3.71774 37.2028 4.74331L39.4038 10.2457C31.6607 5.17835 24.8218 4.55785 18.9996 6.91734C11.9776 9.76301 7.13639 16.696 4.18111 23.1695C3.72239 24.1743 4.16509 25.3607 5.1699 25.8194C6.17471 26.2781 7.36114 25.8354 7.81986 24.8306C10.6293 18.6767 14.9059 12.8923 20.5019 10.6245C25.0122 8.79668 30.8842 9.07279 38.3369 14.3535H32.4716C31.367 14.3535 30.4716 15.2489 30.4716 16.3535C30.4716 17.4581 31.367 18.3535 32.4716 18.3535H44.001H46.955L45.8579 15.6107L40.9168 3.25775Z" fill="#FF1919"/>
</g>
<defs>
<filter id="filter0_di_523_41" x="0" y="0" width="50.9551" height="32.0005" filterUnits="userSpaceOnUse" color-interpolation-filters="sRGB">
<feFlood flood-opacity="0" result="BackgroundImageFix"/>
<feColorMatrix in="SourceAlpha" type="matrix" values="0 0 0 0 0 0 0 0 0 0 0 0 0 0 0 0 0 0 127 0" result="hardAlpha"/>
<feOffset dy="2"/>
<feGaussianBlur stdDeviation="2"/>
<feColorMatrix type="matrix" values="0 0 0 0 0 0 0 0 0 0 0 0 0 0 0 0 0 0 0.45 0"/>
<feBlend mode="normal" in2="BackgroundImageFix" result="effect1_dropShadow_523_41"/>
<feBlend mode="normal" in="SourceGraphic" in2="effect1_dropShadow_523_41" result="shape"/>
<feColorMatrix in="SourceAlpha" type="matrix" values="0 0 0 0 0 0 0 0 0 0 0 0 0 0 0 0 0 0 127 0" result="hardAlpha"/>
<feOffset/>
<feGaussianBlur stdDeviation="1"/>
<feComposite in2="hardAlpha" operator="arithmetic" k2="-1" k3="1"/>
<feColorMatrix type="matrix" values="0 0 0 0 0 0 0 0 0 0 0 0 0 0 0 0 0 0 0.45 0"/>
<feBlend mode="normal" in2="shape" result="effect2_innerShadow_523_41"/>
</filter>
</defs>
</svg>
