<svg width="66" height="32" viewBox="0 0 66 32" fill="none" xmlns="http://www.w3.org/2000/svg">
<path d="M4 4.73349C21 -2.76642 59.5 3.07446 63.5 4.73349C71.2942 7.96619 25 6.73363 4 4.73349Z" fill="#FF1919"/>
<path d="M4 16.4558C21 8.95589 59.5 14.7968 63.5 16.4558C71.2942 19.6885 25 18.4559 4 16.4558Z" fill="#FF1919"/>
<path d="M4 28.1781C21 20.6782 59.5 26.5191 63.5 28.1781C71.2942 31.4108 25 30.1783 4 28.1781Z" fill="#FF1919"/>
<path d="M4 4.73349C21 -2.76642 59.5 3.07446 63.5 4.73349C71.2942 7.96619 25 6.73363 4 4.73349Z" stroke="#333333" stroke-width="2"/>
<path d="M4 16.4558C21 8.95589 59.5 14.7968 63.5 16.4558C71.2942 19.6885 25 18.4559 4 16.4558Z" stroke="#333333" stroke-width="2"/>
<path d="M4 28.1781C21 20.6782 59.5 26.5191 63.5 28.1781C71.2942 31.4108 25 30.1783 4 28.1781Z" stroke="#333333" stroke-width="2"/>
</svg>
