<svg width="113" height="24" viewBox="0 0 113 24" fill="none" xmlns="http://www.w3.org/2000/svg">
<path d="M5.15234 23H0.948242V1.99414H5.15234V10.4023H13.5459V1.99414H17.75V23H13.5459V14.6064H5.15234V23ZM27.2422 19.1621C27.3984 19.2109 27.5547 19.2451 27.7109 19.2646C27.8672 19.2744 28.0234 19.2793 28.1797 19.2793C28.5703 19.2793 28.9463 19.2256 29.3076 19.1182C29.6689 19.0107 30.0059 18.8594 30.3184 18.6641C30.6406 18.459 30.9238 18.2148 31.168 17.9316C31.4219 17.6387 31.627 17.3164 31.7832 16.9648L34.7129 19.9092C34.3418 20.4365 33.9121 20.9102 33.4238 21.3301C32.9453 21.75 32.4229 22.1064 31.8564 22.3994C31.2998 22.6924 30.709 22.9121 30.084 23.0586C29.4688 23.2148 28.834 23.293 28.1797 23.293C27.0762 23.293 26.0361 23.0879 25.0596 22.6777C24.0928 22.2676 23.2432 21.6963 22.5107 20.9639C21.7881 20.2314 21.2168 19.3623 20.7969 18.3564C20.377 17.3408 20.167 16.2275 20.167 15.0166C20.167 13.7764 20.377 12.6436 20.7969 11.6182C21.2168 10.5928 21.7881 9.71875 22.5107 8.99609C23.2432 8.27344 24.0928 7.71191 25.0596 7.31152C26.0361 6.91113 27.0762 6.71094 28.1797 6.71094C28.834 6.71094 29.4736 6.78906 30.0986 6.94531C30.7236 7.10156 31.3145 7.32617 31.8711 7.61914C32.4375 7.91211 32.9648 8.27344 33.4531 8.70312C33.9414 9.12305 34.3711 9.59668 34.7422 10.124L27.2422 19.1621ZM29.293 10.915C29.1074 10.8467 28.9219 10.8027 28.7363 10.7832C28.5605 10.7637 28.375 10.7539 28.1797 10.7539C27.6328 10.7539 27.1152 10.8564 26.627 11.0615C26.1484 11.2568 25.7285 11.54 25.3672 11.9111C25.0156 12.2822 24.7373 12.7314 24.5322 13.2588C24.3271 13.7764 24.2246 14.3623 24.2246 15.0166C24.2246 15.1631 24.2295 15.3291 24.2393 15.5146C24.2588 15.7002 24.2832 15.8906 24.3125 16.0859C24.3516 16.2715 24.3955 16.4521 24.4443 16.6279C24.4932 16.8037 24.5566 16.96 24.6348 17.0967L29.293 10.915ZM51.8369 23H50.8701L49.3174 20.8467C48.9365 21.1885 48.5312 21.5107 48.1016 21.8135C47.6816 22.1064 47.2373 22.3652 46.7686 22.5898C46.2998 22.8047 45.8164 22.9756 45.3184 23.1025C44.8301 23.2295 44.332 23.293 43.8242 23.293C42.7207 23.293 41.6807 23.1074 40.7041 22.7363C39.7373 22.3652 38.8877 21.8281 38.1553 21.125C37.4326 20.4121 36.8613 19.543 36.4414 18.5176C36.0215 17.4922 35.8115 16.3252 35.8115 15.0166C35.8115 13.7959 36.0215 12.6777 36.4414 11.6621C36.8613 10.6367 37.4326 9.75781 38.1553 9.02539C38.8877 8.29297 39.7373 7.72656 40.7041 7.32617C41.6807 6.91602 42.7207 6.71094 43.8242 6.71094C44.332 6.71094 44.835 6.77441 45.333 6.90137C45.8311 7.02832 46.3145 7.2041 46.7832 7.42871C47.252 7.65332 47.6963 7.91699 48.1162 8.21973C48.5459 8.52246 48.9463 8.84961 49.3174 9.20117L50.8701 7.34082H51.8369V23ZM47.8086 15.0166C47.8086 14.4697 47.7012 13.9424 47.4863 13.4346C47.2812 12.917 46.998 12.4629 46.6367 12.0723C46.2754 11.6719 45.8506 11.3545 45.3623 11.1201C44.8838 10.876 44.3711 10.7539 43.8242 10.7539C43.2773 10.7539 42.7598 10.8467 42.2715 11.0322C41.793 11.2178 41.373 11.4912 41.0117 11.8525C40.6602 12.2139 40.3818 12.6631 40.1768 13.2002C39.9717 13.7275 39.8691 14.333 39.8691 15.0166C39.8691 15.7002 39.9717 16.3105 40.1768 16.8477C40.3818 17.375 40.6602 17.8193 41.0117 18.1807C41.373 18.542 41.793 18.8154 42.2715 19.001C42.7598 19.1865 43.2773 19.2793 43.8242 19.2793C44.3711 19.2793 44.8838 19.1621 45.3623 18.9277C45.8506 18.6836 46.2754 18.3662 46.6367 17.9756C46.998 17.5752 47.2812 17.1211 47.4863 16.6133C47.7012 16.0957 47.8086 15.5635 47.8086 15.0166ZM58.9268 23H54.8984V1.07129H58.9268V23ZM69.8545 23C68.8877 23 67.9795 22.8193 67.1299 22.458C66.2803 22.0869 65.5332 21.584 64.8887 20.9492C64.2539 20.3047 63.751 19.5576 63.3799 18.708C63.0186 17.8584 62.8379 16.9502 62.8379 15.9834V11.3252H60.8896V7.34082H62.8379V1.07129H66.8223V7.34082H72.8867V11.3252H66.8223V15.9834C66.8223 16.4033 66.9004 16.7988 67.0566 17.1699C67.2129 17.5312 67.4277 17.8486 67.7012 18.1221C67.9746 18.3955 68.2969 18.6152 68.668 18.7812C69.0391 18.9375 69.4346 19.0156 69.8545 19.0156H72.8867V23H69.8545ZM79.1416 23H75.1426V1.07129H79.1416V8C79.6201 7.63867 80.1133 7.38477 80.6211 7.23828C81.1289 7.08203 81.6465 7.00391 82.1738 7.00391C83.1406 7.00391 84.0488 7.18945 84.8984 7.56055C85.748 7.92188 86.4854 8.4248 87.1104 9.06934C87.7451 9.7041 88.2432 10.4512 88.6045 11.3105C88.9756 12.1602 89.1611 13.0684 89.1611 14.0352V23H85.1328V14.0352H85.1621C85.1621 13.625 85.084 13.2393 84.9277 12.8779C84.7715 12.5068 84.5566 12.1846 84.2832 11.9111C84.0098 11.6377 83.6924 11.4229 83.3311 11.2666C82.9697 11.1104 82.584 11.0322 82.1738 11.0322C81.7539 11.0322 81.3584 11.1104 80.9873 11.2666C80.6162 11.4229 80.2939 11.6377 80.0205 11.9111C79.7471 12.1846 79.5322 12.5068 79.376 12.8779C79.2197 13.2393 79.1416 13.625 79.1416 14.0352V23ZM96.7344 3.04883C96.7344 3.41992 96.6611 3.7666 96.5146 4.08887C96.3779 4.41113 96.1875 4.69434 95.9434 4.93848C95.6992 5.17285 95.4111 5.36328 95.0791 5.50977C94.7568 5.64648 94.4102 5.71484 94.0391 5.71484C93.668 5.71484 93.3164 5.64648 92.9844 5.50977C92.6621 5.36328 92.3789 5.17285 92.1348 4.93848C91.9004 4.69434 91.71 4.41113 91.5635 4.08887C91.4268 3.7666 91.3584 3.41992 91.3584 3.04883C91.3584 2.6875 91.4268 2.3457 91.5635 2.02344C91.71 1.69141 91.9004 1.4082 92.1348 1.17383C92.3789 0.929687 92.6621 0.739258 92.9844 0.602539C93.3164 0.456055 93.668 0.382812 94.0391 0.382812C94.4102 0.382812 94.7568 0.456055 95.0791 0.602539C95.4111 0.739258 95.6992 0.929687 95.9434 1.17383C96.1875 1.4082 96.3779 1.69141 96.5146 2.02344C96.6611 2.3457 96.7344 2.6875 96.7344 3.04883ZM96.0459 23H92.0176V7.31152H96.0459V23ZM112.818 10.4316L109.889 13.376C109.742 12.9658 109.542 12.5996 109.288 12.2773C109.034 11.9453 108.746 11.667 108.424 11.4424C108.111 11.2178 107.77 11.0469 107.398 10.9297C107.027 10.8125 106.646 10.7539 106.256 10.7539C105.709 10.7539 105.191 10.8662 104.703 11.0908C104.225 11.3154 103.805 11.6328 103.443 12.043C103.092 12.4434 102.813 12.9219 102.608 13.4785C102.403 14.0352 102.301 14.6504 102.301 15.3242C102.301 15.8711 102.403 16.3838 102.608 16.8623C102.813 17.3408 103.092 17.7607 103.443 18.1221C103.805 18.4834 104.225 18.7666 104.703 18.9717C105.191 19.1768 105.709 19.2793 106.256 19.2793C106.646 19.2793 107.022 19.2256 107.384 19.1182C107.745 19.0107 108.082 18.8594 108.395 18.6641C108.717 18.459 109 18.2148 109.244 17.9316C109.498 17.6387 109.703 17.3164 109.859 16.9648L112.789 19.9092C112.418 20.4365 111.988 20.9102 111.5 21.3301C111.021 21.75 110.499 22.1064 109.933 22.3994C109.376 22.6924 108.785 22.9121 108.16 23.0586C107.545 23.2148 106.91 23.293 106.256 23.293C105.152 23.293 104.112 23.0879 103.136 22.6777C102.169 22.2578 101.319 21.6865 100.587 20.9639C99.8643 20.2412 99.293 19.3965 98.873 18.4297C98.4531 17.4629 98.2432 16.4277 98.2432 15.3242C98.2432 14.123 98.4531 13 98.873 11.9551C99.293 10.9102 99.8643 10.002 100.587 9.23047C101.319 8.44922 102.169 7.83398 103.136 7.38477C104.112 6.93555 105.152 6.71094 106.256 6.71094C106.91 6.71094 107.55 6.79395 108.175 6.95996C108.81 7.12598 109.41 7.37012 109.977 7.69238C110.553 8.00488 111.08 8.39062 111.559 8.84961C112.047 9.30859 112.467 9.83594 112.818 10.4316Z" fill="black"/>
</svg>
