<svg width="121" height="32" viewBox="0 0 121 32" fill="none" xmlns="http://www.w3.org/2000/svg">
<g filter="url(#filter0_d_532_309)">
<path d="M7.15234 25H2.94824V3.99414H7.15234V12.4023H15.5459V3.99414H19.75V25H15.5459V16.6064H7.15234V25ZM29.2422 21.1621C29.3984 21.2109 29.5547 21.2451 29.7109 21.2646C29.8672 21.2744 30.0234 21.2793 30.1797 21.2793C30.5703 21.2793 30.9463 21.2256 31.3076 21.1182C31.6689 21.0107 32.0059 20.8594 32.3184 20.6641C32.6406 20.459 32.9238 20.2148 33.168 19.9316C33.4219 19.6387 33.627 19.3164 33.7832 18.9648L36.7129 21.9092C36.3418 22.4365 35.9121 22.9102 35.4238 23.3301C34.9453 23.75 34.4229 24.1064 33.8564 24.3994C33.2998 24.6924 32.709 24.9121 32.084 25.0586C31.4688 25.2148 30.834 25.293 30.1797 25.293C29.0762 25.293 28.0361 25.0879 27.0596 24.6777C26.0928 24.2676 25.2432 23.6963 24.5107 22.9639C23.7881 22.2314 23.2168 21.3623 22.7969 20.3564C22.377 19.3408 22.167 18.2275 22.167 17.0166C22.167 15.7764 22.377 14.6436 22.7969 13.6182C23.2168 12.5928 23.7881 11.7188 24.5107 10.9961C25.2432 10.2734 26.0928 9.71191 27.0596 9.31152C28.0361 8.91113 29.0762 8.71094 30.1797 8.71094C30.834 8.71094 31.4736 8.78906 32.0986 8.94531C32.7236 9.10156 33.3145 9.32617 33.8711 9.61914C34.4375 9.91211 34.9648 10.2734 35.4531 10.7031C35.9414 11.123 36.3711 11.5967 36.7422 12.124L29.2422 21.1621ZM31.293 12.915C31.1074 12.8467 30.9219 12.8027 30.7363 12.7832C30.5605 12.7637 30.375 12.7539 30.1797 12.7539C29.6328 12.7539 29.1152 12.8564 28.627 13.0615C28.1484 13.2568 27.7285 13.54 27.3672 13.9111C27.0156 14.2822 26.7373 14.7314 26.5322 15.2588C26.3271 15.7764 26.2246 16.3623 26.2246 17.0166C26.2246 17.1631 26.2295 17.3291 26.2393 17.5146C26.2588 17.7002 26.2832 17.8906 26.3125 18.0859C26.3516 18.2715 26.3955 18.4521 26.4443 18.6279C26.4932 18.8037 26.5566 18.96 26.6348 19.0967L31.293 12.915ZM53.8369 25H52.8701L51.3174 22.8467C50.9365 23.1885 50.5312 23.5107 50.1016 23.8135C49.6816 24.1064 49.2373 24.3652 48.7686 24.5898C48.2998 24.8047 47.8164 24.9756 47.3184 25.1025C46.8301 25.2295 46.332 25.293 45.8242 25.293C44.7207 25.293 43.6807 25.1074 42.7041 24.7363C41.7373 24.3652 40.8877 23.8281 40.1553 23.125C39.4326 22.4121 38.8613 21.543 38.4414 20.5176C38.0215 19.4922 37.8115 18.3252 37.8115 17.0166C37.8115 15.7959 38.0215 14.6777 38.4414 13.6621C38.8613 12.6367 39.4326 11.7578 40.1553 11.0254C40.8877 10.293 41.7373 9.72656 42.7041 9.32617C43.6807 8.91602 44.7207 8.71094 45.8242 8.71094C46.332 8.71094 46.835 8.77441 47.333 8.90137C47.8311 9.02832 48.3145 9.2041 48.7832 9.42871C49.252 9.65332 49.6963 9.91699 50.1162 10.2197C50.5459 10.5225 50.9463 10.8496 51.3174 11.2012L52.8701 9.34082H53.8369V25ZM49.8086 17.0166C49.8086 16.4697 49.7012 15.9424 49.4863 15.4346C49.2812 14.917 48.998 14.4629 48.6367 14.0723C48.2754 13.6719 47.8506 13.3545 47.3623 13.1201C46.8838 12.876 46.3711 12.7539 45.8242 12.7539C45.2773 12.7539 44.7598 12.8467 44.2715 13.0322C43.793 13.2178 43.373 13.4912 43.0117 13.8525C42.6602 14.2139 42.3818 14.6631 42.1768 15.2002C41.9717 15.7275 41.8691 16.333 41.8691 17.0166C41.8691 17.7002 41.9717 18.3105 42.1768 18.8477C42.3818 19.375 42.6602 19.8193 43.0117 20.1807C43.373 20.542 43.793 20.8154 44.2715 21.001C44.7598 21.1865 45.2773 21.2793 45.8242 21.2793C46.3711 21.2793 46.8838 21.1621 47.3623 20.9277C47.8506 20.6836 48.2754 20.3662 48.6367 19.9756C48.998 19.5752 49.2812 19.1211 49.4863 18.6133C49.7012 18.0957 49.8086 17.5635 49.8086 17.0166ZM60.9268 25H56.8984V3.07129H60.9268V25ZM71.8545 25C70.8877 25 69.9795 24.8193 69.1299 24.458C68.2803 24.0869 67.5332 23.584 66.8887 22.9492C66.2539 22.3047 65.751 21.5576 65.3799 20.708C65.0186 19.8584 64.8379 18.9502 64.8379 17.9834V13.3252H62.8896V9.34082H64.8379V3.07129H68.8223V9.34082H74.8867V13.3252H68.8223V17.9834C68.8223 18.4033 68.9004 18.7988 69.0566 19.1699C69.2129 19.5312 69.4277 19.8486 69.7012 20.1221C69.9746 20.3955 70.2969 20.6152 70.668 20.7812C71.0391 20.9375 71.4346 21.0156 71.8545 21.0156H74.8867V25H71.8545ZM81.1416 25H77.1426V3.07129H81.1416V10C81.6201 9.63867 82.1133 9.38477 82.6211 9.23828C83.1289 9.08203 83.6465 9.00391 84.1738 9.00391C85.1406 9.00391 86.0488 9.18945 86.8984 9.56055C87.748 9.92188 88.4854 10.4248 89.1104 11.0693C89.7451 11.7041 90.2432 12.4512 90.6045 13.3105C90.9756 14.1602 91.1611 15.0684 91.1611 16.0352V25H87.1328V16.0352H87.1621C87.1621 15.625 87.084 15.2393 86.9277 14.8779C86.7715 14.5068 86.5566 14.1846 86.2832 13.9111C86.0098 13.6377 85.6924 13.4229 85.3311 13.2666C84.9697 13.1104 84.584 13.0322 84.1738 13.0322C83.7539 13.0322 83.3584 13.1104 82.9873 13.2666C82.6162 13.4229 82.2939 13.6377 82.0205 13.9111C81.7471 14.1846 81.5322 14.5068 81.376 14.8779C81.2197 15.2393 81.1416 15.625 81.1416 16.0352V25ZM98.7344 5.04883C98.7344 5.41992 98.6611 5.7666 98.5146 6.08887C98.3779 6.41113 98.1875 6.69434 97.9434 6.93848C97.6992 7.17285 97.4111 7.36328 97.0791 7.50977C96.7568 7.64648 96.4102 7.71484 96.0391 7.71484C95.668 7.71484 95.3164 7.64648 94.9844 7.50977C94.6621 7.36328 94.3789 7.17285 94.1348 6.93848C93.9004 6.69434 93.71 6.41113 93.5635 6.08887C93.4268 5.7666 93.3584 5.41992 93.3584 5.04883C93.3584 4.6875 93.4268 4.3457 93.5635 4.02344C93.71 3.69141 93.9004 3.4082 94.1348 3.17383C94.3789 2.92969 94.6621 2.73926 94.9844 2.60254C95.3164 2.45605 95.668 2.38281 96.0391 2.38281C96.4102 2.38281 96.7568 2.45605 97.0791 2.60254C97.4111 2.73926 97.6992 2.92969 97.9434 3.17383C98.1875 3.4082 98.3779 3.69141 98.5146 4.02344C98.6611 4.3457 98.7344 4.6875 98.7344 5.04883ZM98.0459 25H94.0176V9.31152H98.0459V25ZM114.818 12.4316L111.889 15.376C111.742 14.9658 111.542 14.5996 111.288 14.2773C111.034 13.9453 110.746 13.667 110.424 13.4424C110.111 13.2178 109.77 13.0469 109.398 12.9297C109.027 12.8125 108.646 12.7539 108.256 12.7539C107.709 12.7539 107.191 12.8662 106.703 13.0908C106.225 13.3154 105.805 13.6328 105.443 14.043C105.092 14.4434 104.813 14.9219 104.608 15.4785C104.403 16.0352 104.301 16.6504 104.301 17.3242C104.301 17.8711 104.403 18.3838 104.608 18.8623C104.813 19.3408 105.092 19.7607 105.443 20.1221C105.805 20.4834 106.225 20.7666 106.703 20.9717C107.191 21.1768 107.709 21.2793 108.256 21.2793C108.646 21.2793 109.022 21.2256 109.384 21.1182C109.745 21.0107 110.082 20.8594 110.395 20.6641C110.717 20.459 111 20.2148 111.244 19.9316C111.498 19.6387 111.703 19.3164 111.859 18.9648L114.789 21.9092C114.418 22.4365 113.988 22.9102 113.5 23.3301C113.021 23.75 112.499 24.1064 111.933 24.3994C111.376 24.6924 110.785 24.9121 110.16 25.0586C109.545 25.2148 108.91 25.293 108.256 25.293C107.152 25.293 106.112 25.0879 105.136 24.6777C104.169 24.2578 103.319 23.6865 102.587 22.9639C101.864 22.2412 101.293 21.3965 100.873 20.4297C100.453 19.4629 100.243 18.4277 100.243 17.3242C100.243 16.123 100.453 15 100.873 13.9551C101.293 12.9102 101.864 12.002 102.587 11.2305C103.319 10.4492 104.169 9.83398 105.136 9.38477C106.112 8.93555 107.152 8.71094 108.256 8.71094C108.91 8.71094 109.55 8.79395 110.175 8.95996C110.81 9.12598 111.41 9.37012 111.977 9.69238C112.553 10.0049 113.08 10.3906 113.559 10.8496C114.047 11.3086 114.467 11.8359 114.818 12.4316Z" fill="white"/>
</g>
<defs>
<filter id="filter0_d_532_309" x="0.948242" y="0.382812" width="119.87" height="30.9102" filterUnits="userSpaceOnUse" color-interpolation-filters="sRGB">
<feFlood flood-opacity="0" result="BackgroundImageFix"/>
<feColorMatrix in="SourceAlpha" type="matrix" values="0 0 0 0 0 0 0 0 0 0 0 0 0 0 0 0 0 0 127 0" result="hardAlpha"/>
<feOffset dx="2" dy="2"/>
<feGaussianBlur stdDeviation="2"/>
<feColorMatrix type="matrix" values="0 0 0 0 0 0 0 0 0 0 0 0 0 0 0 0 0 0 0.7 0"/>
<feBlend mode="normal" in2="BackgroundImageFix" result="effect1_dropShadow_532_309"/>
<feBlend mode="normal" in="SourceGraphic" in2="effect1_dropShadow_532_309" result="shape"/>
</filter>
</defs>
</svg>
