<svg width="35" height="35" viewBox="0 0 35 35" fill="none" xmlns="http://www.w3.org/2000/svg">
<g clip-path="url(#clip0_487_358)">
<path d="M27.3411 35C25.224 35 23.42 34.2537 21.9289 32.7612C20.4379 31.2687 19.6923 29.4629 19.6923 27.3438C19.6923 25.2246 20.4379 23.4188 21.9289 21.9263C23.42 20.4338 25.224 19.6875 27.3411 19.6875C29.4582 19.6875 31.2623 20.4338 32.7533 21.9263C34.2444 23.4188 34.9899 25.2246 34.9899 27.3438C34.9899 29.4629 34.2444 31.2687 32.7533 32.7612C31.2623 34.2537 29.4582 35 27.3411 35ZM31.7119 26.25H28.4338V22.9688C28.4338 22.6725 28.3257 22.4162 28.1094 22.1997C27.8932 21.9832 27.6371 21.875 27.3411 21.875C27.0452 21.875 26.7891 21.9832 26.5728 22.1997C26.3566 22.4162 26.2484 22.6725 26.2484 22.9688V27.3438C26.2484 27.6172 26.3338 27.8507 26.5045 28.0444C26.6753 28.2381 26.8858 28.3577 27.1362 28.4033C27.1818 28.4261 27.2501 28.4375 27.3411 28.4375H31.7119C32.0078 28.4375 32.2639 28.3293 32.4801 28.1128C32.6964 27.8963 32.8045 27.64 32.8045 27.3438C32.8045 27.0475 32.6964 26.7912 32.4801 26.5747C32.2639 26.3582 32.0078 26.25 31.7119 26.25ZM16.4143 28.4375H9.85819C9.56226 28.4375 9.30616 28.3293 9.0899 28.1128C8.87364 27.8963 8.76551 27.64 8.76551 27.3438C8.76551 27.0475 8.87364 26.7912 9.0899 26.5747C9.30616 26.3582 9.56226 26.25 9.85819 26.25H16.4143C16.7102 26.25 16.9663 26.3582 17.1826 26.5747C17.3988 26.7912 17.507 27.0475 17.507 27.3438C17.507 27.64 17.3988 27.8963 17.1826 28.1128C16.9663 28.3293 16.7102 28.4375 16.4143 28.4375ZM9.85819 21.875H16.4143C16.7102 21.875 16.9663 21.9832 17.1826 22.1997C17.3988 22.4162 17.507 22.6725 17.507 22.9688C17.507 23.265 17.3988 23.5213 17.1826 23.7378C16.9663 23.9543 16.7102 24.0625 16.4143 24.0625H9.85819C9.56226 24.0625 9.30616 23.9543 9.0899 23.7378C8.87364 23.5213 8.76551 23.265 8.76551 22.9688C8.76551 22.6725 8.87364 22.4162 9.0899 22.1997C9.30616 21.9832 9.56226 21.875 9.85819 21.875ZM20.785 19.6875H9.85819C9.56226 19.6875 9.30616 19.5793 9.0899 19.3628C8.87364 19.1463 8.76551 18.89 8.76551 18.5938C8.76551 18.2975 8.87364 18.0412 9.0899 17.8247C9.30616 17.6082 9.56226 17.5 9.85819 17.5H20.785C21.081 17.5 21.3371 17.6082 21.5533 17.8247C21.7696 18.0412 21.8777 18.2975 21.8777 18.5938C21.8777 18.89 21.7696 19.1463 21.5533 19.3628C21.3371 19.5793 21.081 19.6875 20.785 19.6875ZM25.1558 15.3125H9.85819C9.56226 15.3125 9.30616 15.2043 9.0899 14.9878C8.87364 14.7713 8.76551 14.515 8.76551 14.2188C8.76551 13.9225 8.87364 13.6662 9.0899 13.4497C9.30616 13.2332 9.56226 13.125 9.85819 13.125H25.1558C25.4517 13.125 25.7078 13.2332 25.924 13.4497C26.1403 13.6662 26.2484 13.9225 26.2484 14.2188C26.2484 14.515 26.1403 14.7713 25.924 14.9878C25.7078 15.2043 25.4517 15.3125 25.1558 15.3125ZM25.1558 6.5625H9.85819C9.56226 6.5625 9.30616 6.45426 9.0899 6.23779C8.87364 6.02132 8.76551 5.76497 8.76551 5.46875C8.76551 5.17253 8.87364 4.91618 9.0899 4.69971C9.30616 4.48324 9.56226 4.375 9.85819 4.375H25.1558C25.4517 4.375 25.7078 4.48324 25.924 4.69971C26.1403 4.91618 26.2484 5.17253 26.2484 5.46875C26.2484 5.76497 26.1403 6.02132 25.924 6.23779C25.7078 6.45426 25.4517 6.5625 25.1558 6.5625ZM25.1558 10.9375H9.85819C9.56226 10.9375 9.30616 10.8293 9.0899 10.6128C8.87364 10.3963 8.76551 10.14 8.76551 9.84375C8.76551 9.54753 8.87364 9.29118 9.0899 9.07471C9.30616 8.85824 9.56226 8.75 9.85819 8.75H25.1558C25.4517 8.75 25.7078 8.85824 25.924 9.07471C26.1403 9.29118 26.2484 9.54753 26.2484 9.84375C26.2484 10.14 26.1403 10.3963 25.924 10.6128C25.7078 10.8293 25.4517 10.9375 25.1558 10.9375ZM28.4338 3.28125C28.4338 2.98503 28.3257 2.72868 28.1094 2.51221C27.8932 2.29574 27.6371 2.1875 27.3411 2.1875H5.48746C5.19153 2.1875 4.93543 2.29574 4.71917 2.51221C4.50291 2.72868 4.39478 2.98503 4.39478 3.28125V4.375C5.00941 4.375 5.5273 4.58577 5.94844 5.00732C6.36958 5.42887 6.58015 5.94727 6.58015 6.5625C6.58015 7.17773 6.36958 7.69613 5.94844 8.11768C5.5273 8.53923 5.00941 8.75 4.39478 8.75V10.9375C5.00941 10.9375 5.5273 11.1483 5.94844 11.5698C6.36958 11.9914 6.58015 12.5098 6.58015 13.125C6.58015 13.7402 6.36958 14.2586 5.94844 14.6802C5.5273 15.1017 5.00941 15.3125 4.39478 15.3125V17.5C5.00941 17.5 5.5273 17.7108 5.94844 18.1323C6.36958 18.5539 6.58015 19.0666 6.58015 19.6704C6.58015 20.2743 6.36958 20.7926 5.94844 21.2256C5.5273 21.6585 5.00941 21.875 4.39478 21.875V24.0625C5.00941 24.0625 5.5273 24.2733 5.94844 24.6948C6.36958 25.1164 6.58015 25.6291 6.58015 26.2329C6.58015 26.8368 6.36958 27.3551 5.94844 27.7881C5.5273 28.221 5.00941 28.4375 4.39478 28.4375V29.5312C4.39478 29.8275 4.50291 30.0838 4.71917 30.3003C4.93543 30.5168 5.19153 30.625 5.48746 30.625H19.6923V32.8125H4.39478C3.80291 32.8125 3.29071 32.596 2.85819 32.1631C2.42567 31.7301 2.20941 31.2174 2.20941 30.625V28.4375C1.61754 28.4375 1.10535 28.221 0.672828 27.7881C0.240308 27.3551 0.0240479 26.8368 0.0240479 26.2329C0.0240479 25.6291 0.240308 25.1164 0.672828 24.6948C1.10535 24.2733 1.61754 24.0625 2.20941 24.0625V21.875C1.61754 21.875 1.10535 21.6585 0.672828 21.2256C0.240308 20.7926 0.0240479 20.2743 0.0240479 19.6704C0.0240479 19.0666 0.240308 18.5539 0.672828 18.1323C1.10535 17.7108 1.61754 17.5 2.20941 17.5V15.3125C1.61754 15.3125 1.10535 15.1017 0.672828 14.6802C0.240308 14.2586 0.0240479 13.7402 0.0240479 13.125C0.0240479 12.5098 0.240308 11.9914 0.672828 11.5698C1.10535 11.1483 1.61754 10.9375 2.20941 10.9375V8.75C1.61754 8.75 1.10535 8.53923 0.672828 8.11768C0.240308 7.69613 0.0240479 7.17773 0.0240479 6.5625C0.0240479 5.94727 0.240308 5.42887 0.672828 5.00732C1.10535 4.58577 1.61754 4.375 2.20941 4.375V2.1875C2.20941 1.57227 2.42567 1.05387 2.85819 0.632324C3.29071 0.210775 3.80291 0 4.39478 0H28.4338C29.0257 0 29.5379 0.210775 29.9704 0.632324C30.4029 1.05387 30.6192 1.57227 30.6192 2.1875V17.5H28.4338V3.28125Z" fill="#FF1919"/>
</g>
<defs>
<clipPath id="clip0_487_358">
<rect width="35" height="35" fill="white"/>
</clipPath>
</defs>
</svg>
