<svg width="15" height="16" viewBox="0 0 15 16" fill="none" xmlns="http://www.w3.org/2000/svg">
<path d="M7.06187 1.37258C7.25444 0.694086 8.2161 0.694088 8.40867 1.37258L9.55203 5.40095C9.63749 5.70205 9.91244 5.90982 10.2254 5.90982L14.1067 5.90982C14.7618 5.90982 15.0579 6.72913 14.5543 7.148L11.2587 9.88912C11.0458 10.0662 10.9573 10.3521 11.0329 10.6184L12.2524 14.915C12.4402 15.5769 11.6604 16.0843 11.1313 15.6443L8.18289 13.1919C7.92348 12.9762 7.54706 12.9762 7.28765 13.1919L4.33921 15.6443C3.81018 16.0843 3.03031 15.5769 3.21818 14.915L4.43765 10.6184C4.51325 10.3521 4.42475 10.0662 4.21187 9.88912L0.916206 7.148C0.412597 6.72913 0.70879 5.90982 1.36383 5.90982L5.24511 5.90982C5.5581 5.90982 5.83305 5.70205 5.91851 5.40095L7.06187 1.37258Z" fill="#FF1919"/>
</svg>
