<svg width="30" height="34" viewBox="0 0 30 34" fill="none" xmlns="http://www.w3.org/2000/svg">
<g clip-path="url(#clip0_487_375)">
<path d="M27.5 0H2.5C1.83696 0 1.20107 0.217413 0.732233 0.604409C0.263392 0.991406 0 1.51629 0 2.06358V30.9538C0 31.501 0.263392 32.0259 0.732233 32.4129C1.20107 32.7999 1.83696 33.0173 2.5 33.0173H27.5C28.163 33.0173 28.7989 32.7999 29.2678 32.4129C29.7366 32.0259 30 31.501 30 30.9538V2.06358C30 1.51629 29.7366 0.991406 29.2678 0.604409C28.7989 0.217413 28.163 0 27.5 0ZM8.75 24.763H6.25V22.6994H8.75V24.763ZM8.75 20.6358H6.25V18.5723H8.75V20.6358ZM8.75 16.5087H6.25V14.4451H8.75V16.5087ZM8.75 12.3815H6.25V10.3179H8.75V12.3815ZM8.75 8.25433H6.25V6.19075H8.75V8.25433ZM23.75 24.763H11.25V22.6994H23.75V24.763ZM23.75 20.6358H11.25V18.5723H23.75V20.6358ZM23.75 16.5087H11.25V14.4451H23.75V16.5087ZM23.75 12.3815H11.25V10.3179H23.75V12.3815ZM23.75 8.25433H11.25V6.19075H23.75V8.25433Z" fill="#FF1919"/>
</g>
<defs>
<clipPath id="clip0_487_375">
<rect width="30" height="33.0173" fill="white"/>
</clipPath>
</defs>
</svg>
