<svg width="32" height="28" viewBox="0 0 32 28" fill="none" xmlns="http://www.w3.org/2000/svg">
<path d="M31.5094 3.9944C30.3613 4.51856 29.1279 4.87273 27.8313 5.03281C29.1692 4.20802 30.1701 2.90989 30.6473 1.38065C29.3904 2.14988 28.0147 2.69134 26.5801 2.98148C25.6153 1.9202 24.3375 1.21677 22.945 0.980401C21.5525 0.744027 20.1232 0.987934 18.879 1.67425C17.6348 2.36057 16.6454 3.45091 16.0643 4.77598C15.4832 6.10104 15.3429 7.58671 15.6653 9.00231C13.1184 8.87056 10.6268 8.18851 8.35228 7.00043C6.07775 5.81235 4.0711 4.14479 2.46257 2.10598C1.91257 3.08348 1.59632 4.21681 1.59632 5.42381C1.59571 6.51039 1.85542 7.58032 2.3524 8.53868C2.84939 9.49705 3.56829 10.3142 4.44532 10.9176C3.4282 10.8843 2.43352 10.6011 1.54407 10.0917V10.1767C1.54397 11.7007 2.05562 13.1778 2.9922 14.3573C3.92878 15.5369 5.23261 16.3462 6.68245 16.6481C5.7389 16.9112 4.74966 16.9499 3.78945 16.7614C4.19851 18.0727 4.99532 19.2194 6.06833 20.0409C7.14134 20.8624 8.43683 21.3177 9.77345 21.3429C7.50447 23.1781 4.70229 24.1735 1.8177 24.1691C1.30672 24.1693 0.796176 24.1385 0.288696 24.0771C3.21673 26.0167 6.62516 27.0461 10.1062 27.0421C21.8899 27.0421 28.3318 16.9866 28.3318 8.26565C28.3318 7.98231 28.3249 7.69615 28.3126 7.41281C29.5656 6.47919 30.6472 5.32308 31.5067 3.99865L31.5094 3.9944Z" fill="black"/>
</svg>
